<?xml version="1.0" encoding="UTF-8"?>
<svg id="_Слой_1" data-name="Слой_1" xmlns="http://www.w3.org/2000/svg" viewBox="0 0 1001.39 222.45">
  <defs>
    <style>
      .cls-1 {
        fill: #ac78e7;
      }

      .cls-2 {
        fill: #fff;
      }
    </style>
  </defs>
  <g>
    <g>
      <path class="cls-2" d="M15.88,76.33h15.77l45.33,54.11v-54.11h15.15v73.12h-15.77l-45.33-54.11v54.11h-15.15v-73.12Z"/>
      <path class="cls-2" d="M174.02,76.33v12.95h-32.8c-3.34,0-6.27.68-8.77,2.04s-4.6,3.13-6.27,5.33c-1.67,2.19-2.92,4.72-3.76,7.57-.84,2.86-1.25,5.74-1.25,8.67s.42,5.8,1.25,8.62c.84,2.82,2.07,5.35,3.71,7.57,1.64,2.23,3.67,4.02,6.11,5.38,2.44,1.36,5.29,2.04,8.56,2.04h33.22v12.95h-33.32c-5.78-.21-10.86-1.38-15.25-3.5-4.39-2.12-8.08-4.89-11.07-8.3-2.99-3.41-5.26-7.26-6.79-11.54-1.53-4.28-2.3-8.69-2.3-13.21s.77-8.84,2.3-13.16c1.53-4.32,3.79-8.18,6.79-11.59,2.99-3.41,6.69-6.18,11.07-8.3,4.39-2.12,9.47-3.29,15.25-3.5h33.32ZM135.58,119.36v-12.95h30.5v12.95h-30.5Z"/>
      <path class="cls-2" d="M259.98,76.33v12.95h-31.23v60.16h-15.15v-60.16h-29.25v-12.95h75.62Z"/>
      <path class="cls-2" d="M343.02,149.44h-15.15v-30.08h-41.47v30.08h-15.15v-73.12h15.15v30.08h41.47v-30.08h15.15v73.12Z"/>
      <path class="cls-2" d="M424.91,76.33v12.95h-32.8c-3.34,0-6.27.68-8.77,2.04s-4.6,3.13-6.27,5.33c-1.67,2.19-2.92,4.72-3.76,7.57-.84,2.86-1.25,5.74-1.25,8.67s.42,5.8,1.25,8.62c.84,2.82,2.07,5.35,3.71,7.57,1.64,2.23,3.67,4.02,6.11,5.38,2.44,1.36,5.29,2.04,8.56,2.04h33.22v12.95h-33.32c-5.78-.21-10.86-1.38-15.25-3.5-4.39-2.12-8.08-4.89-11.07-8.3-2.99-3.41-5.26-7.26-6.79-11.54-1.53-4.28-2.3-8.69-2.3-13.21s.77-8.84,2.3-13.16c1.53-4.32,3.79-8.18,6.79-11.59,2.99-3.41,6.69-6.18,11.07-8.3,4.39-2.12,9.47-3.29,15.25-3.5h33.32ZM386.47,119.36v-12.95h30.5v12.95h-30.5Z"/>
      <path class="cls-2" d="M440.99,76.33h42.09c3.62.07,6.84.77,9.66,2.09,2.82,1.32,5.17,3.03,7.05,5.12,1.88,2.09,3.31,4.46,4.28,7.1.97,2.65,1.46,5.36,1.46,8.15,0,2.23-.31,4.42-.94,6.58-.63,2.16-1.57,4.18-2.82,6.06-1.25,1.88-2.82,3.6-4.7,5.17-1.88,1.57-4.07,2.8-6.58,3.71h-.21c1.88,2.92,3.79,5.74,5.75,8.46,1.95,2.72,4,5.4,6.16,8.04,5.78,7.31,12.2,14.24,19.27,20.79,7.07,6.54,14.64,12.29,22.72,17.23,8.08,4.94,16.61,8.86,25.59,11.75,8.98,2.89,18.31,4.33,27.99,4.33,6.34,0,12.39-.82,18.17-2.46,5.78-1.64,11.26-3.92,16.45-6.84,5.19-2.92,10.04-6.39,14.57-10.39,4.53-4,8.67-8.37,12.43-13.11l10.45,10.03c-4.46,5.64-9.33,10.76-14.62,15.35-5.29,4.6-10.93,8.53-16.92,11.8-5.99,3.27-12.36,5.8-19.12,7.57-6.75,1.78-13.82,2.66-21.2,2.66-10.93,0-21.43-1.57-31.49-4.7-10.06-3.13-19.62-7.42-28.67-12.85-9.05-5.43-17.53-11.77-25.43-19.01-7.9-7.24-15.13-14.97-21.67-23.19-6.29-7.73-12.01-15.91-17.18-24.55h-17.39v28.2h-15.15v-73.12ZM456.14,108.29h22.74c1.82,0,3.41-.26,4.77-.79,1.36-.53,2.48-1.25,3.35-2.17.87-.91,1.54-1.94,1.99-3.06.45-1.13.68-2.29.68-3.49s-.23-2.36-.68-3.48c-.45-1.13-1.12-2.15-1.99-3.06-.87-.91-1.99-1.64-3.35-2.16-1.36-.53-2.95-.79-4.77-.79h-22.74v19.01Z"/>
      <path class="cls-2" d="M584.82,76.33v12.95h-32.8c-3.34,0-6.27.68-8.77,2.04s-4.6,3.13-6.27,5.33-2.92,4.72-3.76,7.57c-.84,2.86-1.25,5.74-1.25,8.67s.42,5.8,1.25,8.62c.84,2.82,2.07,5.35,3.71,7.57,1.63,2.23,3.67,4.02,6.11,5.38s5.29,2.04,8.57,2.04h33.22v12.95h-33.32c-5.78-.21-10.86-1.38-15.25-3.5-4.39-2.12-8.08-4.89-11.07-8.3s-5.26-7.26-6.79-11.54c-1.53-4.28-2.3-8.69-2.3-13.21s.77-8.84,2.3-13.16c1.53-4.32,3.79-8.18,6.79-11.59,2.99-3.41,6.69-6.18,11.07-8.3,4.39-2.12,9.47-3.29,15.25-3.5h33.32ZM546.39,119.36v-12.95h30.5v12.95h-30.5Z"/>
      <path class="cls-2" d="M641.64,112.47c4.94,6.69,9.98,13.23,15.09,19.64,5.12,6.41,10.45,12.48,15.98,18.23,5.54,5.75,11.33,11.04,17.39,15.88,6.06,4.84,12.52,9,19.38,12.48,6.86,3.48,14.19,6.21,21.99,8.2,7.8,1.98,16.22,2.98,25.28,2.98,12.39,0,23.46-2.54,33.21-7.62,9.75-5.08,18.42-12.43,26.01-22.04l11.28,9.3c-8.91,11.21-19.24,19.85-30.97,25.9-11.73,6.06-24.84,9.09-39.33,9.09-9.96,0-19.24-1.03-27.84-3.08-8.6-2.05-16.66-4.89-24.18-8.51-7.52-3.62-14.55-7.94-21.1-12.95-6.55-5.01-12.76-10.46-18.64-16.35s-11.51-12.12-16.87-18.7c-5.36-6.58-10.58-13.28-15.67-20.11l-17.97,24.65h-19.64l28.1-37.39c-5.08-6.82-10.15-13.54-15.2-20.16-5.05-6.61-10.27-12.88-15.67-18.8-5.4-5.92-11-11.39-16.82-16.4s-11.99-9.35-18.54-13c-6.54-3.66-13.54-6.51-20.99-8.56-7.45-2.05-15.46-3.08-24.02-3.08-6.48,0-12.6.75-18.38,2.25-5.78,1.5-11.25,3.62-16.4,6.37-5.15,2.75-10.03,6.08-14.62,9.98-4.6,3.9-8.91,8.25-12.95,13.06l-11.28-9.3c4.74-5.64,9.82-10.72,15.25-15.25,5.43-4.53,11.19-8.41,17.29-11.65,6.09-3.24,12.55-5.73,19.38-7.47,6.83-1.74,14-2.61,21.52-2.61,9.61,0,18.54,1.06,26.79,3.19,8.25,2.12,15.98,5.08,23.19,8.88,7.21,3.8,13.96,8.3,20.26,13.53,6.3,5.22,12.33,10.88,18.07,16.97,5.75,6.09,11.26,12.53,16.56,19.32,5.29,6.79,10.55,13.67,15.77,20.63l17.76-23.61h17.86l-26.32,36.14Z"/>
    </g>
    <g>
      <path class="cls-1" d="M725.39,78.13l46.18.22h4.1c5.29,0,9.32,2.09,12.09,6.26.4.86.68,2.09.86,3.67,0,3.06-2.81,9.24-8.42,18.56-3.17,6.44-6.83,11.62-11.01,15.54-6.51,6.33-15.36,9.5-26.54,9.5l-28.06-.22c-6.12,11.19-9.64,17.23-10.58,18.13h-19.64l-.43-.43,41.22-71.22h.22ZM734.67,96.69l-9.93,17.48h16.62c8.92,0,14.32-1.51,16.19-4.53,3.31-4.57,4.96-7.66,4.96-9.28v-.22c-.47-2.3-2.41-3.45-5.83-3.45h-22.01Z"/>
      <path class="cls-1" d="M802.7,77.91h47.91c8.99,0,14.24,2.81,15.75,8.42l.22,1.51c0,3.17-3.09,9.86-9.28,20.07-3.56,7.12-7.45,11.65-11.65,13.6l-5.61,1.29v.22c2.88,0,4.6,1.37,5.18,4.1v.65c0,1.4-3.45,7.95-10.36,19.64l-1.29,2.16-11.87.22h-8.2l-.43-.43,9.93-17.7h-30.21l-10.58,17.91h-20.07c.86-2.12,7.12-13.27,18.78-33.45,13.92-24.85,21.19-37.59,21.8-38.2ZM802.92,113.96h17.05c9.75,0,15.43-2.23,17.05-6.69,2.16-3.74,3.24-6.19,3.24-7.34v-1.51c-.86-1.44-2.59-2.16-5.18-2.16h-22.01c-6.76,11.26-10.14,17.16-10.14,17.7Z"/>
      <path class="cls-1" d="M899.44,78.35h30c7.45,0,11.98,2.66,13.6,7.99l.22,1.51c0,3.34-2.88,9.68-8.63,18.99-9.53,17.23-15.29,27.16-17.26,29.78-4.93,5.32-9.53,8.78-13.81,10.36-4.03,1.87-9.93,2.81-17.7,2.81h-27.19c-6.15,0-10.25-1.94-12.3-5.83-.43-1.37-.65-2.52-.65-3.45,0-3.56,3.38-10.68,10.14-21.37,8.42-14.89,13.81-23.88,16.19-26.98,8.27-9.21,17.41-13.81,27.41-13.81ZM873.22,127.55v.43c0,2.45,1.87,3.67,5.61,3.67h12.3c7.34,0,13.16-4.89,17.48-14.68,5.61-9.03,8.42-14.5,8.42-16.4v-.65c0-1.83-1.58-2.91-4.75-3.24h-13.17c-7.09,0-13.34,5.47-18.78,16.4-4.75,7.59-7.12,12.41-7.12,14.46Z"/>
    </g>
  </g>
  <g>
    <path class="cls-2" d="M974.04,17.85v3.17h-6.85v18.77h-3.95v-18.77h-6.85v-3.17h17.64Z"/>
    <path class="cls-2" d="M977.81,17.85h4.9l3.99,11.07c.54,1.63,1.5,4.31,2,6.03h.09c.5-1.63,1.72-5.12,2.58-7.53l3.54-9.57h4.94l1.54,21.95h-3.81l-.5-10.48c-.14-2.36-.32-5.17-.41-7.85h-.14c-.59,2-1.18,3.76-2.4,7.12l-4.22,11.06h-2.9l-3.9-10.84c-.68-2.09-1.63-5.26-2.18-7.3h-.18c-.09,2.58-.23,5.49-.36,7.89l-.54,10.38h-3.67l1.63-21.95Z"/>
  </g>
</svg>